<?xml version="1.0" standalone="no"?>
<!DOCTYPE svg PUBLIC "-//W3C//DTD SVG 20010904//EN"
 "http://www.w3.org/TR/2001/REC-SVG-20010904/DTD/svg10.dtd">
<svg version="1.0" xmlns="http://www.w3.org/2000/svg"
 width="500.000000pt" height="500.000000pt" viewBox="0 0 500.000000 500.000000"
 preserveAspectRatio="xMidYMid meet">

<g transform="translate(0.000000,500.000000) scale(0.100000,-0.100000)"
fill="#000000" stroke="none">
<path d="M2360 4199 c-442 -28 -876 -253 -1169 -604 -199 -240 -320 -502 -376
-820 -24 -136 -22 -417 5 -569 62 -363 255 -715 521 -953 259 -232 509 -358
841 -425 152 -30 449 -33 608 -4 701 125 1240 654 1382 1360 30 146 32 468 5
613 -66 347 -221 650 -458 891 -149 151 -269 239 -458 336 -279 142 -562 197
-901 175z m415 -33 c365 -66 637 -205 904 -461 273 -261 467 -663 496 -1025 3
-41 8 -96 11 -122 l5 -48 -1692 0 -1692 0 6 103 c36 583 379 1111 900 1382
175 92 360 151 558 180 125 17 385 13 504 -9z m-1062 -1834 c25 -26 15 -42
-11 -19 -48 44 -137 24 -166 -38 -20 -41 -20 -66 -2 -109 26 -63 92 -84 157
-50 39 20 52 9 19 -16 -49 -37 -126 -29 -173 19 -24 24 -31 40 -35 84 -5 65
14 109 61 138 42 26 119 21 150 -9z m125 -40 l3 -62 84 0 85 0 0 66 c0 48 3
65 13 62 9 -3 13 -43 15 -141 2 -117 0 -137 -13 -137 -12 0 -15 13 -15 65 l0
65 -85 0 -85 0 0 -65 c0 -51 -3 -65 -15 -65 -13 0 -15 22 -15 141 0 108 3 140
13 137 7 -3 13 -28 15 -66z m463 -75 c39 -95 52 -137 43 -137 -8 0 -20 16 -28
35 l-15 35 -71 0 -70 0 -17 -35 c-24 -50 -49 -48 -27 3 9 20 34 83 57 140 29
75 45 102 56 100 10 -2 38 -56 72 -141z m200 33 c24 -60 47 -110 50 -110 3 0
18 33 34 73 41 106 64 147 80 147 13 0 15 -23 15 -140 0 -87 -4 -140 -10 -140
-6 0 -10 46 -10 117 0 64 -4 113 -8 108 -5 -6 -28 -58 -52 -117 -24 -60 -46
-108 -49 -108 -3 0 -26 50 -51 112 l-45 112 -3 -112 c-2 -91 -5 -112 -17 -112
-13 0 -15 24 -15 140 0 129 1 140 18 140 15 0 29 -26 63 -110z m417 99 c19 -6
35 -22 43 -40 10 -26 9 -34 -8 -58 -20 -26 -20 -27 -2 -50 25 -31 24 -69 -3
-98 -19 -20 -31 -23 -95 -23 l-73 0 0 140 0 140 54 0 c29 0 67 -5 84 -11z
m312 -4 c0 -12 -15 -15 -75 -15 l-75 0 0 -50 0 -50 75 0 c43 0 75 -4 75 -10 0
-6 -32 -10 -75 -10 l-75 0 0 -55 0 -55 75 0 c43 0 75 -4 75 -10 0 -6 -35 -10
-85 -10 l-85 0 0 140 0 140 85 0 c69 0 85 -3 85 -15z m249 -9 c13 -12 21 -31
21 -52 0 -47 -9 -65 -41 -78 l-29 -12 35 -52 c39 -57 41 -62 23 -62 -7 0 -29
25 -48 55 -31 48 -39 55 -67 55 l-33 0 0 -55 c0 -30 -4 -55 -10 -55 -6 0 -10
54 -10 141 l0 141 69 -4 c50 -2 75 -9 90 -22z"/>
<path d="M1850 2841 c0 -115 -2 -131 -21 -155 -24 -30 -63 -34 -97 -10 -25 18
-38 13 -29 -10 7 -18 66 -35 100 -29 14 3 36 16 49 30 21 23 23 34 26 164 3
121 1 139 -12 139 -14 0 -16 -18 -16 -129z"/>
<path d="M2030 2818 c-34 -84 -64 -158 -67 -165 -3 -7 2 -13 11 -13 10 0 23
16 32 40 l16 40 88 0 88 0 16 -40 c9 -24 22 -40 32 -40 9 0 14 6 11 13 -117
287 -131 317 -147 317 -13 0 -33 -38 -80 -152z m121 22 l36 -90 -77 0 -78 0
36 90 c19 50 38 90 41 90 3 0 22 -41 42 -90z"/>
<path d="M2340 2805 c0 -140 2 -165 15 -165 12 0 15 14 15 70 l0 70 66 0 c77
0 101 11 119 53 18 43 9 82 -27 112 -26 22 -39 25 -109 25 l-79 0 0 -165z
m180 108 c15 -19 19 -35 15 -53 -10 -42 -30 -54 -100 -58 l-65 -4 0 71 0 71
64 0 c58 0 67 -3 86 -27z"/>
<path d="M2743 2933 c-111 -265 -121 -293 -104 -293 12 0 22 13 31 40 l13 40
89 0 89 0 17 -40 c15 -35 42 -55 42 -31 0 5 -28 78 -63 162 -70 170 -86 187
-114 122z m71 -87 c20 -50 36 -91 36 -93 0 -2 -34 -3 -76 -3 -57 0 -75 3 -71
13 3 6 20 49 38 95 18 45 33 81 35 80 1 -2 18 -43 38 -92z"/>
<path d="M3010 2805 c0 -139 2 -165 15 -165 12 0 15 24 17 137 l3 137 99 -137
c55 -75 105 -137 113 -137 10 0 13 34 13 165 0 139 -2 165 -15 165 -12 0 -15
-24 -17 -135 l-3 -136 -99 136 c-55 74 -105 135 -113 135 -10 0 -13 -35 -13
-165z"/>
<path d="M2197 2252 c-15 -37 -27 -71 -27 -75 0 -4 27 -7 61 -7 54 0 60 2 55
18 -33 87 -52 132 -57 132 -3 0 -18 -30 -32 -68z"/>
<path d="M2800 2280 l0 -50 48 0 c55 0 92 21 92 54 0 35 -20 46 -82 46 l-58 0
0 -50z"/>
<path d="M2800 2155 l0 -55 53 0 c63 0 90 16 90 55 0 39 -27 55 -90 55 l-53 0
0 -55z"/>
<path d="M3340 2275 l0 -56 57 3 c50 3 59 6 72 29 13 24 13 29 -2 53 -15 23
-24 26 -72 26 l-55 0 0 -55z"/>
</g>
</svg>
